<svg width="48" height="24" viewBox="0 0 48 24" fill="none" xmlns="http://www.w3.org/2000/svg">
<path d="M0 12C0 5.37258 5.37258 0 12 0H36C42.6274 0 48 5.37258 48 12C48 18.6274 42.6274 24 36 24H12C5.37258 24 0 18.6274 0 12Z" fill="white" fill-opacity="0.88"/>
<circle cx="12" cy="12" r="8" fill="#E24141"/>
<circle opacity="0.56" cx="34" cy="12" r="5" stroke="#E3DAF9" stroke-width="2"/>
<path d="M12 2H36V-2H12V2ZM36 22H12V26H36V22ZM12 22C6.47715 22 2 17.5228 2 12H-2C-2 19.732 4.26801 26 12 26V22ZM46 12C46 17.5228 41.5228 22 36 22V26C43.732 26 50 19.732 50 12H46ZM36 2C41.5228 2 46 6.47715 46 12H50C50 4.26801 43.732 -2 36 -2V2ZM12 -2C4.26801 -2 -2 4.26801 -2 12H2C2 6.47715 6.47715 2 12 2V-2Z" fill="#F40202"/>
</svg>
