<svg width="48" height="24" viewBox="0 0 48 24" fill="none" xmlns="http://www.w3.org/2000/svg">
<path d="M0 12C0 5.37258 5.37258 0 12 0H36C42.6274 0 48 5.37258 48 12C48 18.6274 42.6274 24 36 24H12C5.37258 24 0 18.6274 0 12Z" fill="#4EE241"/>
<circle cx="36" cy="12" r="8" fill="white"/>
<path d="M8.67587 11.9842C8.48741 11.8154 8.24183 11.7239 7.98839 11.7279C7.73496 11.7319 7.49242 11.8311 7.30942 12.0057C7.12642 12.1804 7.0165 12.4174 7.00171 12.6694C6.98692 12.9213 7.06835 13.1695 7.22967 13.3642L9.45922 15.6942C9.55257 15.7917 9.66474 15.8694 9.78899 15.9227C9.91325 15.976 10.047 16.0037 10.1823 16.0042C10.3169 16.005 10.4502 15.9788 10.5745 15.9273C10.6987 15.8757 10.8112 15.7999 10.9054 15.7042L17.7146 8.70419C17.8069 8.60964 17.8796 8.49791 17.9286 8.37537C17.9775 8.25284 18.0018 8.12191 17.9999 7.99005C17.998 7.85819 17.9701 7.72799 17.9177 7.60688C17.8653 7.48577 17.7895 7.37612 17.6945 7.28419C17.5995 7.19227 17.4873 7.11986 17.3643 7.07112C17.2412 7.02238 17.1097 6.99824 16.9773 7.0001C16.8449 7.00196 16.7141 7.02977 16.5925 7.08194C16.4708 7.13412 16.3607 7.20964 16.2684 7.30419L10.1924 13.5642L8.67587 11.9842Z" fill="white"/>
</svg>
